<svg xmlns="http://www.w3.org/2000/svg" viewBox="0 0 600 160" width="100%" height="100%">
  <g transform="translate(10, 10)">
    <!-- Outer blue swoop -->
    <path d="M 50,130 C 0,80 15,15 80,0 C 120,-10 160,10 170,20 C 140,-5 90,-5 60,15 C 30,35 20,80 50,130 Z" fill="#1572C5" />
    
    <!-- Inner blue swoop -->
    <path d="M 60,75 C 80,45 130,35 165,40 C 140,25 90,30 60,75 Z" fill="#2087E6" />
    
    <!-- Bottom green swoop -->
    <path d="M 35,115 C 60,155 130,155 170,130 C 130,150 80,140 55,95 C 45,105 40,110 35,115 Z" fill="#58C156" />
    
    <!-- Text -->
    <text x="180" y="115" font-family="Arial, Helvetica, sans-serif" font-weight="900" font-size="115" letter-spacing="-4">
      <tspan fill="#0C396B">enov</tspan>
      <tspan fill="#58C156">a</tspan>
    </text>
  </g>
</svg>
